<?xml version="1.0" encoding="utf-8"?>
<!-- Generator: Adobe Illustrator 27.0.1, SVG Export Plug-In . SVG Version: 6.00 Build 0)  -->
<svg version="1.1" xmlns="http://www.w3.org/2000/svg" xmlns:xlink="http://www.w3.org/1999/xlink" x="0px" y="0px"
	 viewBox="0 0 300 90" style="enable-background:new 0 0 300 90;" xml:space="preserve">
<style type="text/css">
	.st0{fill:#FFFFFF;}
	.st1{fill:#C99700;}
	.st2{fill:#001489;}
	.st3{fill:#CCCCCC;}
	.st4{fill:#FF0600;}
	.st5{fill:#6672B8;}
</style>
<g id="Layer_1">
	<g>
		<g>
			<path class="st0" d="M85.4,35.7c0-15.6,3.1-24.3,12-24.3c4.6,0,9.9,2.4,10.6,12.7l-6.5,3c-0.5-7.4-2.3-8.6-4.1-8.6
				c-3.3,0-4.7,5.6-4.7,17.2s1.3,17.2,4.7,17.2c1.8,0,3.6-1.2,4.1-8.6l6.5,3c-0.6,9.6-6,12.7-10.6,12.7
				C88.5,59.9,85.4,51.2,85.4,35.7z"/>
			<path class="st0" d="M111.9,12.3h7.2V32h7.5V12.3h7.2v46.6h-7.2V38.4H119v20.6h-7.2C111.9,58.9,111.9,12.3,111.9,12.3z"/>
			<path class="st0" d="M138,12.3h16.2v6.4h-9v12.9h7V38h-7v14.5h9.1v6.4H138V12.3z"/>
			<path class="st0" d="M158.9,12.3h7.2v40.2h9v6.4h-16.2V12.3z"/>
			<path class="st0" d="M177.6,48.3l5.9-3.5c0.6,5.2,2.1,8,4.4,8c2.2,0,3.1-2.1,3.1-5.3c0-3.9-1.1-7.1-4.7-9.7
				c-4.3-3-7.9-6.5-7.9-14.7c0-7.1,3.9-11.9,9.9-11.9c3.3,0,8.2,1.8,9.4,10.1l-5.6,3.1c-0.6-4.3-1.9-6.4-3.9-6.4c-2.3,0-3,2.3-3,4.6
				c0,4.5,2.4,6.9,5.6,9.1c5.5,3.7,7.3,8.1,7.3,14.5c0,8.3-4.2,13.5-10.5,13.5C182.5,59.9,178.2,55.5,177.6,48.3z"/>
			<path class="st0" d="M201.8,12.3H218v6.4h-9v12.9h7V38h-7v14.5h9.1v6.4h-16.3V12.3z"/>
			<path class="st0" d="M236,48h-6.1l-1.6,11h-6.9l7.5-46.6h8.3l7.5,46.6h-7.1L236,48z M235,41.6l-0.3-1.9
				c-0.7-4.7-1.1-8.9-1.7-16.5h-0.1c-0.6,7.7-1,11.8-1.7,16.5l-0.3,1.9H235z"/>
			<path class="st0" d="M258.8,12.3h16.1v6.4H266V33h6.9v6.4H266v19.6h-7.2V12.3z"/>
			<path class="st0" d="M276.9,35.7c0-15.6,3.1-24.3,12-24.3c4.6,0,9.9,2.4,10.6,12.7l-6.5,3c-0.5-7.4-2.3-8.6-4.1-8.6
				c-3.3,0-4.7,5.6-4.7,17.2s1.3,17.2,4.7,17.2c1.8,0,3.6-1.2,4.1-8.6l6.5,3c-0.6,9.6-6,12.7-10.6,12.7
				C279.9,59.9,276.9,51.2,276.9,35.7z"/>
		</g>
		<g id="True_Blue_00000013892425048164643000000000988857291151628676_">
			<g>
				<g>
					<g>
						<path class="st1" d="M71,44.6c0,19.8-16.1,35.9-35.9,35.9C15.3,80.6-0.7,64.5-0.7,44.6c0-19.8,16.1-35.9,35.9-35.9
							C54.9,8.8,71,24.8,71,44.6z"/>
						<path class="st2" d="M69.8,44.6c0,19.2-15.5,34.7-34.7,34.7S0.4,63.8,0.4,44.6C0.4,25.6,16,10,35.1,10S69.8,25.6,69.8,44.6z"
							/>
						<path class="st1" d="M59.8,44.6c0,13.7-11,24.7-24.7,24.7s-24.7-11-24.7-24.7s11-24.7,24.7-24.7C48.8,20,59.8,31,59.8,44.6z"
							/>
						<path class="st0" d="M59.1,44.6c0,13.3-10.7,24-24,24s-24-10.7-24-24c0-13.2,10.8-23.9,24-23.9C48.4,20.7,59.1,31.4,59.1,44.6
							z"/>
						<g>
							<path class="st1" d="M14.6,65.4c0.2,0.2,1,0.9,1,0.9l0.6-0.6l-1.9-1.8L14,64l-2.5,2.7l1,0.9c0,0,0.9-0.9,1.1-1.2
								c0.2,0.2,0.9,0.7,0.9,0.7l0.6-0.6c0,0-0.6-0.5-0.9-0.7C14.4,65.6,14.5,65.5,14.6,65.4z"/>
							<path class="st1" d="M19.1,68.4c-0.1-0.5-0.3-1-0.7-1.3c-0.4-0.3-1-0.4-1.4-0.3c-0.5,0.1-1.1,0.4-1.4,0.9
								c-0.3,0.5-0.4,1.1-0.4,1.6c0.1,0.5,0.3,1,0.7,1.3c0.4,0.3,1,0.4,1.4,0.3c0.5-0.1,1.1-0.4,1.4-0.9s0.4-0.9,0.4-1.3
								C19.2,68.6,19.2,68.5,19.1,68.4z M16.4,69.8c-0.4-0.3-0.1-1,0.2-1.3c0.2-0.3,0.7-1,1.2-0.6s0,1.1-0.2,1.3
								C17.4,69.4,16.9,70.1,16.4,69.8z"/>
							<path class="st1" d="M22.1,69.3c-1-0.5-2.1-0.1-2.7,1c-0.3,0.5-0.3,1.1-0.1,1.6c0.1,0.5,0.5,0.9,1,1.1c0.4,0.2,1,0.3,1.5,0.1
								c0.5-0.2,1-0.5,1.2-1.1C23.3,71.1,23,69.9,22.1,69.3z M20.9,72.2c-0.1,0-0.2,0-0.3,0c-0.2-0.1-0.3-0.3-0.3-0.5
								c0-0.3,0.1-0.6,0.2-0.9c0.2-0.4,0.6-1,1.1-0.7c0.1,0.1,0.2,0.1,0.2,0.3c0.1,0.2,0,0.6-0.2,1.1C21.4,71.9,21.2,72.2,20.9,72.2
								z"/>
							<path class="st1" d="M24.1,70.7l-0.2,0.5c0,0,0.4,0.2,0.6,0.2c-0.2,0.5-1,2.9-1,2.9l1.3,0.4c0,0,0.9-2.4,1-2.9
								c0.1,0,0.6,0.2,0.6,0.2l0.3-0.9l-2.5-0.9L24.1,70.7z"/>
							<path class="st1" d="M29.2,71.9l-1.7-0.3l-0.1,0.3l-0.7,3.5l1.7,0.3c0.5,0.1,0.9,0,1.1-0.1c0.2-0.2,0.4-0.4,0.5-0.7
								c0-0.1,0-0.2,0-0.2c0-0.2-0.1-0.4-0.2-0.6c0.2-0.1,0.3-0.3,0.4-0.6c0-0.1,0-0.1,0-0.2C30.3,72.7,30.1,72.1,29.2,71.9z
								 M28.8,74.7c0,0.1,0,0.2-0.1,0.2s-0.2,0-0.3,0h-0.1c0-0.2,0.1-0.4,0.1-0.6c0.1,0,0.2,0,0.2,0c0.2,0,0.2,0.2,0.2,0.3
								C28.8,74.6,28.8,74.6,28.8,74.7z M28.7,72.8c0.1,0,0.2,0.1,0.3,0.1V73v0.1c0,0.1,0,0.2-0.3,0.2c0,0,0,0-0.1,0
								C28.6,73.1,28.6,73,28.7,72.8z"/>
							<path class="st1" d="M32.3,72.6l-1.8,3.7l1.1,0.1c0,0,0.3-0.6,0.4-0.9c0.2,0,0.4,0,0.6,0c0.1,0.2,0.3,0.9,0.3,0.9l1.4,0.1
								l-1.5-4.8L32.3,72.6z"/>
							<path class="st1" d="M36.4,75.4c0-0.5-0.1-3-0.1-3H36h-1l0.2,4l2.6,0v-1C37.7,75.4,36.8,75.4,36.4,75.4z"/>
							<path class="st1" d="M40,75.1c-0.1-0.5-0.5-3-0.5-3h-0.3l-1,0.1l0.6,4l2.6-0.4l-0.1-1C41.3,74.9,40.4,75,40,75.1z"/>
							<path class="st1" d="M47.5,72.4c0,0.3-0.2,0.6-0.5,0.7c-0.2,0.1-0.3,0.1-0.5,0s-0.5-0.4-0.6-0.7c-0.2-0.4-0.2-0.7-0.1-1.1
								c0.1-0.2,0.2-0.3,0.4-0.4s0.4,0,0.7,0.2l0.3,0.2l0.5-0.7l-0.3-0.2c-0.5-0.3-1.2-0.4-1.7-0.2c-0.5,0.2-1,0.6-1.2,1.1
								c-0.2,0.5-0.2,1.1,0,1.6c0.4,1.1,1.6,1.6,2.7,1.2c0.7-0.3,1.2-0.9,1.2-1.6v-0.3h-0.9V72.4z"/>
							<path class="st1" d="M50.6,71.4c-0.2-0.4-1.5-2.7-1.5-2.7l-0.3,0.2L48,69.3l1.9,3.4l2.2-1.3l-0.4-0.7
								C51.7,70.7,51,71.2,50.6,71.4z"/>
							<path class="st1" d="M53.1,66l-0.3,0.2l-0.5,0.3l1.6,2.2C54,68.9,54,69,54,69c0,0.1-0.1,0.2-0.2,0.3c0,0-0.2,0.1-0.3,0.1
								s-0.1-0.1-0.2-0.1l-1.6-2.1l-1,0.6l1.6,2.1c0.2,0.3,0.5,0.5,0.9,0.5c0.4,0.1,0.9-0.1,1.2-0.3c0.9-0.6,0.9-1.4,0.4-1.9
								L53.1,66z"/>
							<path class="st1" d="M58,65.3c-0.2-0.2-0.5-0.3-0.9-0.3c0-0.2-0.1-0.5-0.3-0.6c-0.3-0.3-1.1-0.6-1.7,0.1l-1.3,1.1l2.8,2.9
								l1.3-1.2c0.4-0.4,0.5-0.7,0.5-1C58.4,65.8,58.2,65.5,58,65.3z M55.9,65.2c0,0,0.1,0.1,0.1,0.2s0,0.1-0.1,0.2c0,0,0,0-0.1,0.1
								c-0.1-0.1-0.2-0.2-0.4-0.4C55.7,65,55.8,65.1,55.9,65.2z M56.5,66.1c0.2-0.2,0.4,0,0.5,0c0.1,0.1,0.1,0.1,0.1,0.2l0,0
								c0,0.1-0.1,0.2-0.2,0.2c0,0,0,0-0.1,0.1c-0.2-0.2-0.3-0.3-0.5-0.5C56.5,66.1,56.5,66.1,56.5,66.1z"/>
						</g>
						<g>
							<path class="st0" d="M14.6,65c0.1,0.1,1,0.9,1,0.9l0.2-0.3l-1.5-1.4v0.1l-2.4,2.5l0.5,0.5c0,0,1-1.1,1.1-1.2
								c0.1,0.1,0.9,0.7,0.9,0.7l0.2-0.3c0,0-0.7-0.7-0.9-0.7C13.9,65.7,14.5,65.1,14.6,65z"/>
							<path class="st0" d="M18.2,67.3c-0.3-0.2-0.9-0.3-1.3-0.3c-0.4,0.1-0.9,0.3-1.2,0.7c-0.3,0.4-0.4,1-0.3,1.4
								c0.1,0.4,0.3,0.9,0.6,1.1c0.3,0.2,0.9,0.3,1.3,0.3c0.4-0.1,0.9-0.3,1.2-0.7c0.2-0.3,0.3-0.7,0.3-1.1c0-0.1,0-0.2,0-0.3
								C18.7,68,18.5,67.5,18.2,67.3z M17.8,69.3c-0.2,0.3-0.9,1.1-1.5,0.6s-0.1-1.3,0.1-1.7c0.2-0.3,0.9-1.1,1.5-0.6
								C18.5,68.1,18.1,68.9,17.8,69.3z"/>
							<path class="st0" d="M22,69.6c-0.9-0.4-1.9-0.1-2.4,0.9c-0.2,0.4-0.3,1-0.1,1.4c0.1,0.4,0.4,0.7,0.9,1
								c0.4,0.2,0.9,0.2,1.3,0.1c0.4-0.1,0.9-0.5,1.1-1C23.1,71.1,22.8,70,22,69.6z M20.5,72.4c-0.7-0.3-0.3-1.3-0.1-1.7
								c0.2-0.4,0.7-1.3,1.4-0.9c0.2,0.1,0.3,0.2,0.3,0.4c0.1,0.4-0.1,1-0.2,1.3c-0.1,0.3-0.4,0.7-0.9,1
								C20.8,72.6,20.7,72.6,20.5,72.4z"/>
							<path class="st0" d="M24.3,70.8l-0.1,0.3c0,0,0.5,0.2,0.6,0.2c0,0.1-1,2.9-1,2.9l0.7,0.2c0,0,1-2.8,1-2.9
								c0.1,0,0.6,0.2,0.6,0.2l0.1-0.3L24.3,70.8L24.3,70.8z"/>
							<path class="st0" d="M29.2,72.2l-1.4-0.3V72l-0.7,3.2l1.5,0.3c0.3,0.1,0.6,0,0.9-0.1c0.2-0.1,0.3-0.3,0.4-0.6
								c0-0.1,0-0.1,0-0.2c0-0.3-0.1-0.5-0.4-0.7c0.3-0.1,0.5-0.3,0.5-0.6c0,0,0-0.1,0-0.2C30.1,72.8,29.9,72.3,29.2,72.2z
								 M28.7,72.4c0.2,0,0.4,0.1,0.5,0.3c0,0.1,0.1,0.2,0.1,0.2v0.1c-0.1,0.4-0.4,0.4-0.6,0.4c0,0-0.2,0-0.3-0.1
								c0-0.1,0.2-1,0.2-1.1C28.6,72.4,28.7,72.4,28.7,72.4z M28.6,73.9c0.4,0.1,0.4,0.4,0.4,0.6c0,0.1,0,0.1,0,0.1
								c0,0.2-0.1,0.3-0.2,0.4s-0.3,0.1-0.5,0c0,0-0.2-0.1-0.4-0.1c0-0.1,0.2-1.1,0.2-1.2C28.3,73.8,28.6,73.9,28.6,73.9z"/>
							<path class="st0" d="M32.6,72.7l-1.6,3.4h0.4c0,0,0.3-0.7,0.4-0.9c0.1,0,0.9,0.1,1,0.1c0,0.1,0.3,0.9,0.3,0.9l0.9,0.1
								l-1.2-3.7L32.6,72.7z M32.3,73.9c0.1,0.2,0.2,0.7,0.3,0.9c-0.2,0-0.5,0-0.7-0.1C32,74.7,32.2,74.3,32.3,73.9z"/>
							<path class="st0" d="M36.2,75.8c0-0.2-0.1-3-0.1-3H36h-0.7l0.1,3.4l2.1-0.1v-0.4C37.5,75.7,36.3,75.8,36.2,75.8z"/>
							<path class="st0" d="M39.8,75.4c0-0.2-0.4-3-0.4-3h-0.1l-0.6,0.1l0.5,3.4l2-0.3l-0.1-0.4C41.1,75.2,39.9,75.3,39.8,75.4z"/>
							<path class="st0" d="M47.8,72.4c0,0.4-0.3,0.9-0.6,1c-0.2,0.1-0.4,0.1-0.7,0c-0.3-0.1-0.6-0.4-0.7-0.9
								c-0.2-0.5-0.2-0.9-0.1-1.2c0.1-0.2,0.3-0.4,0.6-0.5c0.4-0.1,0.7,0,1.1,0.2h0.1l0.2-0.3h-0.1c-0.4-0.3-1.1-0.3-1.5-0.2
								c-0.4,0.2-0.9,0.5-1,1c-0.2,0.4-0.2,1,0,1.4c0.3,0.9,1.4,1.4,2.2,1c0.6-0.2,1-0.7,1.1-1.4v-0.1L47.8,72.4L47.8,72.4z"/>
							<path class="st0" d="M50.5,71.7C50.4,71.6,49,69,49,69h-0.1l-0.6,0.3l1.7,3l1.8-1.1l-0.2-0.2C51.6,71.1,50.6,71.7,50.5,71.7z
								"/>
							<path class="st0" d="M53.1,66.3L53.1,66.3l-0.3,0.3l1.5,2c0.1,0.1,0.1,0.3,0.1,0.4c0,0.2-0.2,0.4-0.3,0.5s-0.3,0.1-0.4,0.1
								c-0.1,0-0.3-0.1-0.4-0.2l-1.5-2.1l-0.6,0.4l1.4,1.9c0.2,0.2,0.4,0.4,0.6,0.4c0.4,0.1,0.9-0.2,1.1-0.3
								c0.6-0.5,0.6-1.2,0.4-1.5L53.1,66.3z"/>
							<path class="st0" d="M57.8,65.4c-0.3-0.3-0.6-0.3-1-0.2c0-0.1,0-0.2,0-0.2c0-0.2-0.1-0.4-0.2-0.5c-0.2-0.2-0.7-0.5-1.4,0.1
								l-1.1,1l2.4,2.5l1.1-1.1c0.3-0.2,0.4-0.5,0.4-0.9C58.1,65.8,58,65.6,57.8,65.4z M56.2,65.3c0,0.2-0.1,0.3-0.2,0.4
								c0,0-0.2,0.1-0.2,0.2c-0.1-0.1-0.6-0.6-0.7-0.7c0.1-0.1,0.2-0.2,0.2-0.2c0.3-0.3,0.6-0.3,0.9-0.1
								C56.2,65.1,56.2,65.2,56.2,65.3z M57,67.1c-0.1-0.1-0.7-0.7-0.9-0.9c0.1-0.1,0.3-0.3,0.3-0.3c0.4-0.4,0.9,0,0.9,0
								c0.1,0.1,0.2,0.2,0.2,0.4l0,0c0,0.1-0.1,0.3-0.2,0.4C57.2,66.8,57,67,57,67.1z"/>
						</g>
						<g>
							<path class="st1" d="M19.2,21.1l-1.5,0.4l0.2,0.5c0.2,0.6,0,1.3-0.4,1.7c-0.3,0.2-0.6,0.3-1,0.3c-0.5,0-1.1-0.4-1.6-1
								c-0.5-0.6-0.9-1.3-0.7-1.8c0-0.4,0.2-0.7,0.5-1c0.4-0.3,0.9-0.3,1.6-0.2l0.5,0.1l0.3-1.4l-0.5-0.1c-1.1-0.2-2.1,0-3,0.7
								c-1.6,1.4-1.7,3.6-0.3,5.2c1.3,1.5,3.5,1.6,5,0.3c1.1-1,1.4-2.1,1.1-3.4L19.2,21.1z"/>
							<path class="st1" d="M23.1,13.8l-1.5,0.7c0,0,0.9,1.7,1.1,2.4c-0.4,0.2-0.9,0.4-1.3,0.6c-0.3-0.6-1.1-2.4-1.1-2.4l-1.9,1
								l3,6.3l1.9-1c0,0-1-1.9-1.2-2.6c0.4-0.2,0.9-0.4,1.3-0.6c0.3,0.6,1.2,2.6,1.2,2.6l1.9-1l-3-6.3L23.1,13.8z"/>
							<path class="st1" d="M29.8,17.6c-0.1-0.4-0.2-1-0.3-1.4c0.6-0.1,2.2-0.4,2.2-0.4l-0.3-1.4c0,0-1.6,0.3-2.2,0.4
								c-0.1-0.4-0.2-0.7-0.2-1.2c0.6-0.1,2.4-0.4,2.4-0.4l-0.3-1.4L30.4,12l-4,0.7l1.4,6.9l4.6-1l-0.3-1.4
								C32.1,17.2,30.4,17.5,29.8,17.6z"/>
							<path class="st1" d="M36.1,11.6h-2.1v0.5l-0.1,6.4l4.5,0.1v-1.5c0,0-1.7,0-2.4,0C36,16.2,36.1,11.6,36.1,11.6z"/>
							<path class="st1" d="M43.2,15.1c-0.5-0.4-0.7-0.5-0.6-0.7c0-0.1,0.1-0.5,0.5-0.4c0.2,0.1,0.5,0.2,0.6,0.7l0.1,0.5l1.4-0.4
								l-0.1-0.4c-0.2-0.9-1-1.6-1.8-1.8c-0.6-0.2-1.4-0.1-1.9,0.2s-0.9,0.7-1,1.4c-0.3,1.4,0.6,2.1,1.3,2.6
								c0.6,0.4,0.9,0.6,0.7,1.1c0,0.1-0.1,0.2-0.2,0.3c-0.1,0.1-0.3,0.1-0.4,0.1c-0.3-0.1-0.5-0.2-0.6-0.6L40.9,17l-1.4,0.5
								l0.1,0.4c0.3,0.9,1,1.4,1.9,1.7c1.2,0.3,2.6-0.2,3-1.7C44.8,16.4,43.8,15.6,43.2,15.1z"/>
							<path class="st1" d="M48.3,18.8c0.5,0.3,2,1,2,1l0.6-1.3c0,0-1.5-0.7-2-1c0.2-0.4,0.3-0.7,0.5-1.1c0.5,0.3,2.1,1.1,2.1,1.1
								l0.6-1.3l-4.1-2L48,14.6l-2.9,5.8l4.1,2l0.6-1.3c0,0-1.6-0.7-2.1-1.1C47.9,19.7,48.1,19.2,48.3,18.8z"/>
							<path class="st1" d="M56.3,19.5l-6.5,3.4l1.3,1.1c0,0,1.1-0.5,1.5-0.7c0.3,0.2,0.7,0.6,1,0.9c-0.1,0.4-0.5,1.6-0.5,1.6
								l1.7,1.5l2.8-8.2L56.3,19.5z"/>
						</g>
						<g>
							<path class="st0" d="M19,21.5l-0.7,0.2v0.2c0.2,0.7,0,1.6-0.5,2.1c-0.3,0.3-0.7,0.4-1.2,0.4c-0.6,0-1.3-0.4-1.8-1.1
								c-0.6-0.7-1-1.4-0.9-2c0-0.4,0.2-0.9,0.6-1.3c0.5-0.5,1.3-0.4,1.8-0.3h0.2l0.2-0.7h-0.2c-1-0.2-1.9,0-2.7,0.6
								c-1.4,1.3-1.5,3.2-0.2,4.7c1.2,1.4,3.2,1.5,4.5,0.3c1-0.9,1.3-1.8,1-3.1L19,21.5z"/>
							<path class="st0" d="M23.2,14.1l-1.2,0.5c0,0,1,2,1.1,2.4c-0.2,0.1-1.6,0.7-1.9,0.9c-0.1-0.3-1.1-2.4-1.1-2.4l-1.3,0.6
								l2.7,5.7l1.3-0.6c0,0-1.1-2.2-1.2-2.6c0.2-0.1,1.6-0.7,1.9-0.9c0.1,0.3,1.2,2.6,1.2,2.6l1.3-0.6L23.3,14L23.2,14.1z"/>
							<path class="st0" d="M29.4,18.1c0-0.3-0.3-1.8-0.4-2.1c0.3-0.1,2.2-0.4,2.2-0.4l-0.1-0.7c0,0-1.9,0.4-2.2,0.4
								c-0.1-0.3-0.3-1.6-0.4-1.9c0.3-0.1,2.4-0.4,2.4-0.4l-0.1-0.6h-0.2l-3.6,0.7l1.3,6.1l3.9-0.7l-0.1-0.7
								C31.8,17.6,29.8,18,29.4,18.1z"/>
							<path class="st0" d="M35.8,12h-1.5v0.2l-0.1,6.1l3.9,0.1v-0.9c0,0-2,0-2.4,0C35.7,17.1,35.8,12,35.8,12z"/>
							<path class="st0" d="M43,13.6c0.4,0.1,0.7,0.4,0.9,1v0.2l0.7-0.2v-0.1c-0.1-0.7-0.7-1.4-1.6-1.6c-0.5-0.1-1.2-0.1-1.6,0.2
								c-0.4,0.2-0.7,0.6-0.9,1.2c-0.3,1.2,0.4,1.7,1.1,2.2c0.6,0.4,1.1,0.7,0.9,1.4c-0.1,0.3-0.2,0.4-0.4,0.5s-0.4,0.2-0.6,0.1
								c-0.4-0.1-0.7-0.3-0.9-1l-0.1-0.2l-0.6,0.2v0.1c0.2,0.7,0.7,1.3,1.7,1.5c1,0.2,2.2-0.2,2.6-1.4c0.3-1.3-0.5-1.8-1.2-2.4
								c-0.5-0.4-1-0.7-0.7-1.2C42.2,13.8,42.5,13.5,43,13.6z"/>
							<path class="st0" d="M49.4,15.9c0.3,0.1,2.1,1.1,2.1,1.1l0.3-0.6l-3.4-1.7l-0.1,0.1l-2.8,5.5l3.4,1.7l0.3-0.6
								c0,0-1.9-1-2.1-1.1c0.1-0.2,0.9-1.7,1-1.9c0.2,0.1,2,1,2,1l0.3-0.6c0,0-1.7-0.9-2-1C48.6,17.4,49.1,16.2,49.4,15.9z"/>
							<path class="st0" d="M56.5,19.8l-6.1,3.1l0.6,0.5c0,0,1.3-0.6,1.5-0.7c0.1,0.1,1.2,1.1,1.4,1.2c-0.1,0.2-0.5,1.6-0.5,1.6
								l1.2,1l2.4-6.9L56.5,19.8z M53.3,22.4c0.3-0.1,1-0.5,1.5-0.7c-0.2,0.4-0.4,1.3-0.5,1.6C54,23,53.5,22.6,53.3,22.4z"/>
						</g>
						<path class="st3" d="M52.2,43.8c-0.5-1.3-2.2-1.9-3.9-1.3c-0.6,0.2-1.2,0.6-1.6,1.2c1.1-3,5.4-3.6,5.4-6.5
							c0-4.7-6.7-3.4-5.8,0c0-1.5,2.5-1.8,2.5,0s-4.3,3-4.3,6.1c0,3.4,3.4,3.7,3.1,6.9c-0.1,0.5-0.6,1.3-1.5,1.3
							c-5.2,0-3.3-6.4-5.2-8.3l0.1-1.3c1.1,0.6,3.9-0.9,2-3.2c0,1.2-2.4,1.1-2.4-1.1c0-2.9,2.7-1.4,2.9-0.7c-0.1-1.1-0.2-1.7,0-2.4
							c-1.5,0.4-1.6-0.3-1.4-0.7s0.5-0.9,1.1-0.9c0.3,0,0.5,0,0.6,0.1c0.2,0.1,0.3-0.2,0.3,0.1c0.1-0.2,0.1,0.1,0.2-0.2
							c0.1-0.2,0.3-0.5,0.7-0.9v-0.5l0.4,0.1l0.4-0.6c-0.4-1-1.1-0.4-1.5-1.6c-0.4-0.1-6.1,0.5-6-1.8c-0.4,0-1.6,0.2-0.9,1.2
							c-0.5,0.1-1-0.5-1.7,1.1c1-0.2,0.5,1,0.5,1.3c0,2-2.8,2-2.8,1.1c-0.6,0.6-0.3,2,0.7,2.5c0,0-0.4,1.5-1.3,2.5
							c-1.4-0.1-3.6-0.3-4.9-1.5c-0.5-0.5-1-0.9-1.4-1v-0.6c0.5-0.3,1.2-0.7,1.8-1.6c0.5-0.6,0.7-1.4,0.6-2.2c0-0.1,0-0.2,0-0.3
							v-0.1c0-0.1,0-0.1,0-0.2v-0.1c0-0.1,0-0.1-0.1-0.2c0,0,0,0,0-0.1s-0.1-0.2-0.1-0.2s0-0.1-0.1-0.1c0,0,0-0.1-0.1-0.1
							c0,0,0-0.1-0.1-0.1l-0.1-0.1l-0.1-0.1c0,0,0,0-0.1-0.1s-0.2-0.2-0.2-0.2l0,0c-0.1,0-0.1-0.1-0.2-0.1l0,0
							c-0.1,0-0.1-0.1-0.2-0.1l0,0c-0.6-0.3-1.3-0.5-2-0.5c-1.8,0.1-3.2,1.7-3,3.4c0.1,1.4,1.1,2.5,2.4,2.8c-0.4,0.2-0.9,0.4-1,0.4
							l0,0l0,0c0,0,0,0,0.1,0l0,0h0.1l0,0h0.1l0,0c0.1,0,0.2,0.1,0.3,0.1l0,0H25l0,0c0,0,0.1,0,0.2,0l0,0v0.4c0,0,0,0-0.1,0
							c-0.6,0.1-1,0.3-1.2,0.9s0,0.7,0.3,1.1c-0.2,0.4-0.9,0.5,0,1.5c-0.1,0.3,0,0.9,0.5,1.1c0.2,0.1,0.3,0.1,0.4,0.1v7
							c-0.5,0.3-0.7,0.6-0.9,1c0,0-0.4-0.9-0.4,0.9c0.4-0.3,0.3,0.4,0.3,0.4c-0.6,0.9,0.2,0.7,0.2,0.7c0.5-0.5,0.4,0.2,0.4,0.2
							c0,1,0.4,1.3,0.4,1.4v5.2h-0.4v1.5h0.9c-0.4,0.2-0.7,0.6-0.7,1.2c0.1,0.6,0.6,1.1,1.3,1.1s1.2-0.6,1.1-1.2
							c0-0.4-0.3-0.7-0.7-1h0.5v-1.5h-0.4V51c0.1,0,0.2,0.1,0.3,0.1h0.1c0,0,0,0,0.1,0c-0.1-0.6,0.2-1.1,0.2-1.1
							c0.2-0.3,0.4-0.5,0.7-0.6c1-0.4,2.2-0.3,2.6,0.4c2.4-0.6,4.5-3,4.5-3l1.2,2c-2.5,0.9-7.9,5.6-4.2,7.3c0,0.4-0.1,4.1-2.4,3.7
							c-3.3-0.4-4.1,1-3.4,2.5c-0.3,1.3,0.6,1.7,0.6,1.7c-0.1-0.7,0.2-1.4,1.6-1.4c0,1.4,0.9,1.6,0.9,1.6c0-1.2,0.9-1.6,1.5-1.6
							c0,1,1.1,1.3,1.1,1.3s-0.3-1.1,1-1.3c3.2-0.5,0.2-3.9,5-4.7c0,0-2.4-0.3-2.4-1.7c0-1.2,2.1-2,2.9-2c1.5,2.9,3.2,3,3.6,3
							c0.6,0.7,0.4,3.3-0.5,3.3c-3.6-0.2-3.4,2-3.1,2.5c0,0.9,0.6,1.3,0.6,1.3c0-1,0.9-1.2,2-1.1c0,1.3,0.7,1.4,0.7,1.4
							c0-1.1,0.9-1.3,1.4-1.3c0,0.7,0.7,1.1,0.7,1.1s-0.1-1,1-1c2,0-0.9-4.3,3-8.5c-3.4,1.6-5.2-2.4-5.2-3.1c1.7,2,7.5,2.5,7.5-1.1
							c0-3.3-3.6-4.6-1.9-5.9c1-0.7,3,0.7,1.8,2.4C51.8,46.6,52.8,45,52.2,43.8z M30.4,43.9c-1.3,0.7-2.1,1.7-3.3,2.1
							c-0.2,0.1-0.3,0.1-0.4,0.1v-6.5c0.3,0,1.1,0.1,2,0.5c1,0.5,1,1.6-0.2,1.8c0.7,1.4,3.3,0.7,3.9-0.4c0.3,0,0.5,0.4,0.7,1
							C32.8,42.5,32,42.9,30.4,43.9z M44.9,32.9c-0.1,0.2-0.3,0.4-0.4,0.5c0.3,0.5,1,0.9,1.6,0.9c1-0.1,1.6-1,1.5-1.8v-0.1
							c-0.1,0.4-0.6,0.9-1.4,1C45.6,33.4,45.2,33.3,44.9,32.9z"/>
						<path id="body_00000134230320581941738690000013883009393246992563_" class="st2" d="M24.1,29.1L24.1,29.1L24.1,29.1
							C24.1,29,24.1,29,24.1,29.1C24.1,29,24.1,29,24.1,29.1z M24.1,56.5L24.1,56.5L24.1,56.5L24.1,56.5z M24.1,26.3L24.1,26.3
							L24.1,26.3L24.1,26.3z M23.6,56.3h0.7c-0.1,0-0.2,0.1-0.3,0.1c0.1,0,0.2,0,0.2,0c0.4,0,0.7,0.3,0.7,0.7s-0.3,0.7-0.7,0.7
							c-0.3,0-0.6-0.2-0.6-0.5v0.1c0.1,0.6,0.6,1.1,1.3,1.1s1.2-0.6,1.1-1.2c0-0.4-0.3-0.7-0.7-1h0.7v-1.5h-0.4v-4.7
							C25.1,50,24.8,49.4,25,49c0.3,0,0.5,0.1,0.6,0.2c-0.2,0.5,0.4,1.2,0.4,1.2c-0.1-0.6,0.2-1.1,0.2-1.1c0.2-0.3,0.4-0.5,0.7-0.6
							c1-0.4,2.2-0.3,2.6,0.4c2.4-0.6,4.5-3,4.5-3l1.2,2c2.8,0,1.8-2,1.6-2.2c0.6,0,1.5,0.4,1.5,1.5c0,2.6-7.4,2.9-7.4,6
							c0,1.3,1.3,1.8,1.3,1.8c0,2.8-1.9,4.5-3.3,4.5c-2.1,0-3.7-0.4-3.7,1.9h0.7c-0.7,0.7,0,1.7,0,1.7c-0.1-0.7,0.2-1.4,1.6-1.4h0.9
							c-0.5,0.5-0.2,1.4,0,1.6c0-1.2,0.9-1.6,1.5-1.6c0.2,0,0.6,0,0.6,0c-0.2,0.2,0.1,1,0.5,1.3c0,0-0.3-1.1,1-1.3
							c3.2-0.5,0.2-3.9,5-4.7c0,0-2.4-0.3-2.4-1.7c0-1.2,2.1-2,2.9-2c0.5-0.1,1.2-0.1,1.6,0c0.2,1.9,2.4,1.8,2.9,1.8
							c1.8,1.8-0.4,4.8-0.4,4.8c-2.9,0-4,0.4-4,2h0.5c-0.3,0.3-0.1,1.2,0.1,1.4c0-1,0.9-1.2,1.9-1.1h0.5c-0.3,0.3-0.2,1,0.1,1.3
							c0-1.1,0.9-1.3,1.4-1.3h0.5c-0.2,0.2,0,0.7,0.2,1.1c0,0-0.1-1,1-1c2,0-0.9-4.3,3-8.5c-3.4,1.6-5.2-2.4-5.2-3.1
							c1.7,2,7.5,2.5,7.5-1.1c0-2.8-2.7-4.2-2.5-5.2c0.1-0.9,0.7-1.5,1.7-1.5s1.7,0.7,1.7,1.7c0,0.7-0.4,1.3-1.1,1.6l0,0l0,0
							c1.6-0.6,2.6-2.1,2-3.4c-0.5-1.3-2.2-1.9-3.9-1.3c-0.6,0.2-1.2,0.6-1.6,1.2c1.1-3,5.4-3.6,5.4-6.5c0-4.7-6.7-3.4-5.8,0v-0.1
							c0.2-1.9,3.6-2.4,3.6,0.2c0,2.1-4.4,3.3-4.4,6.2c0,3,3.2,3.7,3.2,6.9c0,0.3-0.2,1.9-2.4,1.9s-3.1-1.2-3.6-2.7l0,0
							c-1.1-2-0.6-5.2-1.9-6.5l0.1-1.3c1.1,0.6,3.9-0.9,2-3.2c0,1.2-2.4,1.1-2.4-1.1c0-2.9,2.7-1.4,2.9-0.7c-0.1-1.1-0.2-1.7,0-2.4
							c-1.5,0.4-1.6-0.4-1.4-0.7c0.2-0.4,0.5-0.9,1.1-0.9c0.9,0,0.7,0.3,0.7,0.7c0.3-0.4,0.4-0.9,1.2-1.5v-0.5l0.4,0.1l0.4-0.6
							c-0.4-1-1.1-0.4-1.5-1.6c-0.3-0.1-5.2-0.5-5-2.9c-0.4,0-1.6,1.5-0.7,2.2c0,0-0.6,0-1,0c-0.5,0.1-1.8-0.3-2.6,1.3
							c2-1.9,3.3,2.8-0.4,2.8l0,0l0,0c-0.5,0-1-0.2-1.1-0.6c-0.3,1.6,1.9,2.1,1.9,2.1c0,0.4-1.2,3-1.7,3.6c0.4,0.4,0.5,2.7-1.3,2.7
							c0.6-1.7-1.2-3.1-3-4.1l0,0c-0.3-0.1-0.6-0.3-1-0.4l0,0c-1.1-0.5-2-0.7-2-0.7V34v-0.6c0.5-0.3,1.2-0.7,1.8-1.6
							c0.5-0.6,0.7-1.4,0.6-2.1c0-0.1,0-0.2,0-0.3v-0.1c0-0.1,0-0.1,0-0.2v-0.1c0-0.1,0-0.1-0.1-0.2v-0.1c0-0.1-0.1-0.1-0.1-0.2
							c0,0,0-0.1-0.1-0.1l-0.1-0.1c0,0,0-0.1-0.1-0.1l-0.1-0.1l-0.1-0.1c0,0,0,0-0.1-0.1S27,27.5,27,27.5l0,0c0,0-0.1-0.1-0.2-0.1
							l0,0c-0.1,0-0.1-0.1-0.2-0.1l0,0c-0.6-0.3-1.3-0.5-2-0.5c-0.2,0-0.3,0-0.4,0.1c-1.1,0.4-1.8,1.6-1.8,3.1c0,1.4,0.6,2.6,1.6,3
							l0,0c-0.4,0.2-0.9,0.4-1,0.4c0,0,0,0,0.1,0l0,0c0,0,0,0,0.1,0l0,0h0.1l0,0h0.1l0,0c0.1,0,0.2,0.1,0.2,0.1l0,0h0.1l0,0
							c0,0,0.1,0,0.2,0l0,0c0.3,0,0.7-0.1,0.7-0.1v0.7c-0.1,0-0.6-0.2-0.7-0.3c0,0,0,0-0.1,0c-0.6,0.1-1,0.3-1.2,0.9s0,0.7,0.3,1.1
							c-0.2,0.4-0.9,0.5,0,1.5c-0.1,0.3,0,0.9,0.5,1.1c0.2,0.1,0.3,0.1,0.4,0.1c0.3,0,0.7,0.2,0.7,0.9v6c0.3,0,0.5,0,0.9,0.1v-6.5
							c0.3,0,1.1,0.1,2,0.5l0,0l0,0c0.1,0,0.2,0,0.2,0.1c0.6,0.2,1,0.7,0.9,1.2c-0.1,0.4-0.7,0.7-1.4,0.5c0.7,1.4,3.3,0.7,3.9-0.4
							c0.3,0,0.5,0.4,0.7,1c0,0,0.6,0.2,2.2,0.2c0,0-6.5,4.2-8.3,4.2c-0.7,0-2.6,0-2.6,0.6c-0.5,0-1.2,0.9-1.2,1.3
							c0.4-0.3,0.9-0.3,0.9-0.3c0.4,0,0.6,0.1,0.6,0.1c-0.1,0.1-0.7,0.9-0.7,1.4c0.5-0.5,0.7-0.5,0.7-0.5s0.5-0.1,0.7,0.1
							c-0.1,0.1-0.4,0.6-0.4,1.2c0,0,0.3-0.6,0.7-0.6v6.2c0,0.2-0.9,0.3-1.2,0.3 M23.9,37.4c-0.1,0-0.2-0.2-0.2-0.3s0.1-0.3,0.2-0.3
							c0.4,0,1.2,0.2,1.2,0.2C25,37.2,24.2,37.4,23.9,37.4z M23.7,36.5c-0.2,0-0.3-0.3-0.3-0.4c0-0.1,0.1-0.4,0.3-0.3
							c0.5,0,1.5,0.4,1.5,0.5C25.2,36.3,24.1,36.5,23.7,36.5z M23.6,35.2c-0.2-0.1-0.2-0.4-0.2-0.5s0.2-0.4,0.4-0.3
							c0.5,0.1,1.6,0.7,1.6,0.9C25.3,35.3,24.1,35.3,23.6,35.2z M25.3,31.4c0.1-0.2,0.1-0.5,0-0.9l0,0c-0.6,0-1.2-0.5-1.2-1.2
							c0-0.1,0-0.2,0-0.3l0,0l0,0l0,0c0.1-0.5,0.6-0.9,1.2-0.9c0.6,0,1.2,0.5,1.2,1.2C26.5,30.2,25.9,30.9,25.3,31.4z"/>
						<path id="tongue_00000043439207480589475120000016508591301695106210_" class="st4" d="M43.4,32.5c0.3,0.5,1,0.9,1.6,0.9
							c1-0.1,1.6-1,1.5-1.8v-0.1c-0.1,0.4-0.6,0.9-1.4,1c-0.5,0-1.1-0.1-1.3-0.4C43.7,32.1,43.6,32.3,43.4,32.5z"/>
						<path id="eye_00000153671693932395960920000000906409927191171761_" class="st0" d="M41.1,29.3h0.5l-0.3,0.4
							C41.4,29.7,41,30,41.1,29.3z M39.7,29.3h0.9c0,0,0,0.6,0.5,0.7L41,30.3C41,30.3,39.4,29.8,39.7,29.3z"/>
						<path id="highlights_00000049204461357869458750000012435261736954215606_" class="st5" d="M25.3,35.2c0-0.1-1-0.7-1.6-0.9
							c-0.2-0.1-0.4,0.2-0.4,0.3s0,0.4,0.2,0.5C24.1,35.3,25.3,35.3,25.3,35.2z M25.2,36.2c0-0.1-1-0.4-1.5-0.5
							c-0.2,0-0.3,0.3-0.3,0.3c0,0.1,0.1,0.4,0.3,0.4C24.1,36.5,25.2,36.3,25.2,36.2z M24.1,33.1v0.4c0.1,0.1,0.6,0.3,0.7,0.3v-0.7
							C24.8,33.1,24.4,33.2,24.1,33.1z M23.9,36.9c-0.1,0-0.2,0.2-0.2,0.3s0.1,0.3,0.2,0.3c0.4,0,1.1-0.2,1.1-0.3
							S24.2,36.9,23.9,36.9z M23,47.2c-0.6,0.9-0.2,1.6-0.2,1.6c0-0.5,0.6-1.3,0.7-1.4C23.7,47.4,23.5,47.2,23,47.2z M25.1,49
							c-0.1,0.5,0.1,1,0.5,1.2c0.1,0,0.2,0.1,0.3,0.1H26c0,0,0,0,0.1,0c0,0-0.6-0.6-0.4-1.2C25.6,49,25.4,49,25.1,49z M23.9,32.3
							c-1-0.4-1.6-1.6-1.6-3c0-1.5,0.7-2.7,1.8-3.1c-1.6,0.3-2.7,1.7-2.6,3.3C21.6,30.9,22.6,32,23.9,32.3z M34.1,29
							c1-0.2,1.4,0.7,1.4,1.1c0,1.2-1,1.7-1.7,1.7l0,0C37.3,31.8,36,27.1,34.1,29z M31.6,39.5c1.7,0,1.6-2.2,1.3-2.7
							c0.5-0.5,1.7-3.1,1.7-3.6c0,0-2.2-0.5-1.9-2.1l0,0l0,0c-0.6,0.6-0.2,2,0.7,2.4c0,0-0.4,1.5-1.3,2.5c-1,0-2.2-0.1-3.4-0.6
							C30.4,36.4,32.2,37.8,31.6,39.5z M24.7,28.6c0.4,0,0.9,0.3,0.9,0.7c0,0.4-0.3,0.9-0.7,0.9c-0.4,0-0.9-0.3-0.9-0.7
							c0,0.6,0.5,1.2,1.2,1.2l0,0c0.1,0.3,0.1,0.6,0,0.9c0.6-0.5,1.2-1.3,1.2-2c0-0.6-0.5-1.2-1.2-1.2c-0.5,0-1.1,0.3-1.2,0.9
							C24.2,28.8,24.4,28.6,24.7,28.6z M37.7,27.7c-0.7-0.7,0.3-2.2,0.7-2.2c-0.4,0-2.5,1.3-1.8,2.2C37,27.7,37.7,27.7,37.7,27.7z
							 M27.5,40.8c0.6,0.2,1.3,0,1.4-0.5c0.1-0.5-0.2-1.1-0.9-1.2c-0.1,0-0.2,0-0.2-0.1C28.7,39.5,28.6,40.5,27.5,40.8z M25.7,34.1
							c0,0,0.9,0.3,2,0.7c-0.2-0.1-0.4-0.3-0.6-0.4c-0.5-0.5-1-0.9-1.4-1V34.1z M26,45.7c1.9,0,8.3-4.2,8.3-4.2
							c-1.6,0-2.2-0.2-2.2-0.2c-0.3,0.2-1.1,0.5-2.7,1.5c-1.3,0.7-2.1,1.7-3.3,2.1C25.9,45,25.8,45,25.7,45c-0.2,0-0.5-0.1-0.9-0.1
							v-6c0-0.6-0.4-0.9-0.7-0.9v7l0,0c-0.5,0.3-0.7,0.6-0.9,1c0,0-1-0.1-1,1.7c0-0.4,0.7-1.3,1.2-1.3C23.5,45.7,25.2,45.7,26,45.7z
							 M42.2,55.2c-0.4,0-2.7,0.1-2.9-1.8c-0.4-0.1-1.1-0.1-1.6,0c1.5,2.9,3.2,3,3.6,3c0.6,0.7,0.4,3.3-0.5,3.3
							c-3.6-0.2-3.4,2-3.1,2.5c0-1.6,1.1-2,4-2C41.7,60,44,57.1,42.2,55.2z M42.9,62.4h-0.5c0,0.7,0.7,1.1,0.7,1.1
							C42.9,63.1,42.7,62.5,42.9,62.4z M38.3,63.5c-0.2-0.2-0.4-1.1-0.1-1.4h-0.5C37.7,63,38.3,63.5,38.3,63.5z M49.1,36.2
							c0-2.5-3.4-2.1-3.6-0.2c0.1-1.4,2.5-1.6,2.5,0.1c0,1.8-4.3,3-4.3,6.1c0,3.4,3.4,3.7,3.1,6.9c-0.1,0.5-0.6,1.3-1.5,1.3
							c-1.8,0-2.8-0.7-3.3-1.8c0.5,1.5,1.6,2.7,3.6,2.7c2.1,0,2.4-1.6,2.4-1.9c0-3.1-3.2-3.9-3.2-6.9C44.6,39.5,49.1,38.3,49.1,36.2
							z M23.7,48.3c0,1,0.4,1.3,0.4,1.3c0-0.5,0.2-1.1,0.4-1.2C24.2,48.1,23.7,48.3,23.7,48.3z M48.6,42.9c-0.9,0-1.6,0.6-1.7,1.5
							c0-0.2,0.2-0.4,0.4-0.6c1-0.7,3,0.7,1.8,2.4c0.6-0.2,1.1-0.9,1.1-1.6C50.2,43.7,49.5,42.9,48.6,42.9z M40.9,62.4h-0.5
							c-0.1,1.1,0.6,1.3,0.6,1.3C40.7,63.3,40.6,62.6,40.9,62.4z M24.4,56.4c-0.1,0-0.2,0-0.2,0c-0.3,0.2-0.4,0.5-0.4,0.9
							c0.1,0.3,0.3,0.5,0.6,0.5c0.4,0,0.7-0.3,0.7-0.7C25.2,56.7,24.8,56.4,24.4,56.4z M28.5,61.8h-0.9c0,1.4,0.9,1.6,0.9,1.6
							C28.3,63.1,28,62.4,28.5,61.8z M31.2,53.3c0-3.1,7.4-3.4,7.4-6c0-1.1-0.9-1.5-1.5-1.5c0.2,0.2,1.2,2.2-1.6,2.2
							c-2.5,0.9-7.9,5.6-4.2,7.3c0,0.4-0.1,4.1-2.4,3.7c-3.3-0.4-4.1,1-3.4,2.5c0-2.4,1.6-1.9,3.7-1.9c1.3,0,3.3-1.7,3.3-4.5
							C32.4,55.1,31.2,54.6,31.2,53.3z M24.8,55.1v-6.2c-0.4,0-0.7,0.6-0.7,0.6v5.4l0,0h-0.4v0.6C24,55.5,24.8,55.3,24.8,55.1z
							 M26.1,63.1c0,0-0.6-1.1,0-1.7h-0.7C25.1,62.7,26.1,63.1,26.1,63.1z M30.6,61.8c0,0-0.3,0-0.6,0c0,1,1.1,1.3,1.1,1.3
							C30.7,62.8,30.5,62,30.6,61.8z"/>
						<path class="st0" d="M60.8,37.6L60.8,37.6L60.8,37.6z"/>
						<path class="st0" d="M10.1,51.5v-0.1v-0.1C10,50.8,9.9,50,9.2,49.9c-0.2,0-0.3,0-0.5,0c0-0.2,0-0.3,0-0.5
							c-0.2-0.6-1.1-0.6-1.5-0.6H7H6.9c-0.4-0.1-1.3-0.2-1.6,0.3c-0.1,0.1-0.1,0.3-0.1,0.5c-0.2-0.1-0.3-0.1-0.5-0.1
							c-0.6,0-1,0.9-1.1,1.3v0.1l-0.1,0.1c-0.2,0.4-0.6,1.2-0.2,1.6c0.1,0.2,0.3,0.2,0.5,0.3c-0.1,0.1-0.2,0.3-0.3,0.4
							c-0.2,0.6,0.5,1.2,0.9,1.4l0.1,0.1l0.1,0.1c0.3,0.3,0.9,1,1.5,0.6c0.1-0.1,0.3-0.2,0.4-0.3c0.1,0.2,0.2,0.3,0.3,0.4
							c0.5,0.3,1.2-0.1,1.6-0.4l0.1-0.1L8.6,55c0.4-0.2,1.2-0.5,1.1-1.2c0-0.2-0.1-0.3-0.2-0.5c0.2,0,0.4-0.1,0.5-0.2
							C10.4,52.8,10.2,51.9,10.1,51.5z"/>
						<path class="st4" d="M7.2,52c3.7,2.1,2.6-0.2,2.5-0.5C9.5,51.1,9.5,48.5,7.2,52z"/>
						<path class="st4" d="M6.9,52.5c-1,4.2,1,2.4,1.3,2.1C8.6,54.6,11,53.7,6.9,52.5z"/>
						<path class="st4" d="M6.3,52.5C2,53,4.4,54.2,4.6,54.5C4.9,54.7,6.5,56.8,6.3,52.5z"/>
						<path class="st4" d="M6.2,52c-1.7-4-2.2-1.3-2.4-1C3.7,51.3,2.2,53.5,6.2,52z"/>
						<path class="st0" d="M67.2,50.9l-0.1-0.1v-0.1c-0.1-0.4-0.4-1.3-1.1-1.3c-0.2,0-0.3,0-0.5,0.1c0-0.2,0-0.4-0.1-0.5
							c-0.3-0.5-1.2-0.4-1.6-0.3h-0.1h-0.1c-0.4,0-1.3,0-1.5,0.6c-0.1,0.2-0.1,0.3,0,0.5c-0.2-0.1-0.3-0.1-0.5,0
							c-0.6,0.1-0.7,1-0.9,1.4v0.1v0.1c-0.1,0.4-0.4,1.2,0.1,1.6c0.1,0.1,0.3,0.2,0.5,0.2c-0.1,0.1-0.2,0.3-0.2,0.5
							c-0.1,0.6,0.7,1.1,1.1,1.2l0.1,0.1l0.1,0.1c0.3,0.2,1.1,0.7,1.6,0.4c0.1-0.1,0.2-0.2,0.3-0.4c0.1,0.2,0.2,0.3,0.4,0.3
							c0.6,0.2,1.2-0.3,1.5-0.6l0.1-0.1l0.1-0.1c0.3-0.2,1.1-0.7,0.9-1.4c0-0.2-0.1-0.3-0.3-0.4c0.2,0,0.3-0.1,0.4-0.3
							C67.9,52.1,67.4,51.4,67.2,50.9z"/>
						<path class="st4" d="M63.9,51.7c-3.2-2.9-0.5-2.5-0.2-2.6C64.1,49.1,66.6,48.3,63.9,51.7z"/>
						<path class="st4" d="M63.5,52c-3.7,2.1-2.6-0.2-2.5-0.5C61.1,51.1,61.1,48.5,63.5,52z"/>
						<path class="st4" d="M63.7,52.5c1,4.2-1,2.4-1.3,2.1C62.1,54.6,59.6,53.7,63.7,52.5z"/>
						<path class="st4" d="M64.3,52.5c4.3,0.4,1.9,1.7,1.7,1.9C65.7,54.7,64.1,56.8,64.3,52.5z"/>
						<path class="st4" d="M64.5,52c1.7-4,2.2-1.3,2.4-1C66.9,51.3,68.5,53.5,64.5,52z"/>
						<path class="st0" d="M65.3,52.1C65.3,52,65.3,52,65.3,52.1c0.3-0.3,0.6-0.6,0.6-0.6v-0.1c0,0-0.4,0.1-0.9,0.1
							c-0.2-0.3-0.5-0.5-1-0.6c-0.1-0.4-0.2-0.7-0.2-0.7h-0.1c0,0-0.1,0.4-0.1,0.9c-0.2,0.1-0.4,0.2-0.6,0.4
							c-0.1,0.1-0.1,0.2-0.2,0.3c-0.4,0-0.9,0-0.9,0v0.1c0,0,0.4,0.2,0.7,0.4v0.1c0,0.3,0.2,0.6,0.4,0.9c-0.1,0.4-0.3,0.9-0.3,0.9
							H63c0,0,0.3-0.3,0.6-0.6c0.1,0.1,0.3,0.1,0.5,0.1c0.2,0,0.3-0.1,0.5-0.1c0.3,0.2,0.7,0.5,0.7,0.5l0.1-0.1c0,0-0.2-0.4-0.4-0.9
							C65.2,52.8,65.3,52.4,65.3,52.1z"/>
						<path class="st4" d="M63.9,51.5c-0.2,0-0.4,0.1-0.5,0.3c-0.1,0.1-0.2,0.3-0.2,0.5c0,0.4,0.4,0.7,0.9,0.6
							c0.2,0,0.4-0.1,0.5-0.3c0.1-0.1,0.2-0.3,0.2-0.5C64.8,51.7,64.3,51.4,63.9,51.5z"/>
						<path class="st4" d="M6.6,51.7c3.2-2.9,0.5-2.5,0.2-2.6C6.5,49.1,4,48.3,6.6,51.7z"/>
						<path class="st0" d="M7.9,52.2c0.3-0.2,0.7-0.4,0.7-0.4v-0.1c0,0-0.4,0-0.9,0c0-0.1-0.1-0.2-0.2-0.3C7.4,51.1,7.2,51,7,50.9
							c-0.1-0.4-0.1-0.9-0.1-0.9H6.8c0,0-0.1,0.4-0.2,0.7c-0.4,0-0.7,0.3-1,0.6c-0.4-0.1-0.9-0.1-0.9-0.1v0.1c0,0,0.3,0.2,0.7,0.5
							v0.1c0,0.3,0.1,0.6,0.3,1c-0.2,0.4-0.4,0.9-0.4,0.9H5.3c0,0,0.4-0.3,0.7-0.5c0.1,0.1,0.3,0.1,0.5,0.1s0.3,0,0.5-0.1
							C7.4,53.7,7.7,54,7.7,54h0.1c0,0-0.1-0.4-0.3-0.9C7.7,53,7.9,52.6,7.9,52.2C7.9,52.3,7.9,52.2,7.9,52.2z"/>
						<path class="st4" d="M7.2,51.7c-0.1-0.1-0.3-0.2-0.5-0.3c-0.4,0-0.7,0.3-0.9,0.6c0,0.2,0,0.4,0.2,0.5c0.1,0.1,0.3,0.2,0.5,0.3
							c0.4,0,0.7-0.3,0.9-0.6C7.4,52.1,7.3,51.9,7.2,51.7z"/>
						<g>
							<path class="st0" d="M7.2,33.8c-1.8-0.3-3.5,0.9-3.9,2.7C3,38.3,4.2,40,6,40.3s3.5-0.9,3.9-2.7C10.2,35.8,9,34.1,7.2,33.8z"
								/>
							<g>
								<path class="st4" d="M7.9,36.3c0,0-0.1,0-0.1-0.1C7.5,35.9,7,35.6,7,35.6c-0.1,0-0.1-0.1-0.2-0.1c-0.2-0.2-0.4-0.3-0.6-0.4
									C6,35.1,6,35,5.9,35c-0.3-0.1-0.6-0.2-1-0.3c-0.3,0.2-0.5,0.4-0.7,0.7c0.9,0.3,1.6,0.7,3.3,1.8C7.6,37,7.9,36.4,7.9,36.3z"
									/>
								<path class="st4" d="M7.2,38.1c0-0.1,0.2-0.4,0.2-0.6c-1.7-1.1-2.5-1.5-3.3-1.8c-0.1,0.2-0.2,0.4-0.3,0.7
									C4.2,37,5.5,37.7,7.2,38.1z"/>
								<path class="st4" d="M7,35.4c0.6-0.4,1.4-0.3,1.9-0.1c-0.2-0.3-0.4-0.5-0.7-0.6c-0.5-0.1-1.3-0.1-1.8,0.3
									C6.4,35.1,6.8,35.2,7,35.4z"/>
								<path class="st4" d="M4.4,38.4c0.1,0.1,0.2,0.1,0.2,0.2c0.2,0.1,0.4,0.2,0.6,0.3c0.1,0,0.2,0,0.3,0c0.3,0.1,1.1,0.3,1.1,0.3
									s0.3-0.7,0.4-1c-1.3-0.3-2.7-0.9-3.3-1.6c0,0.3,0,0.6,0,1C3.9,38,4.1,38.2,4.4,38.4z"/>
								<path class="st4" d="M6.6,39.6l-0.3-0.1c-0.2-0.1-0.5-0.1-0.7-0.2c0.1,0.3,0.3,0.5,0.5,0.6c0.3,0,0.6,0,0.9,0
									C6.9,39.8,6.6,39.6,6.6,39.6z"/>
								<path class="st4" d="M9.3,36.3c-0.1-0.2-0.1-0.4-0.2-0.5c-0.5-0.2-1.3-0.4-1.9-0.1l1,0.6c0.2,0,0.3,0,0.5,0
									c0.1,0,0.2,0,0.2,0C9.1,36.2,9.2,36.2,9.3,36.3z"/>
								<path class="st4" d="M8.9,36.4c0,1.5-0.7,2.7-1.4,3.4c1-0.3,1.7-1.2,1.9-2.2c0.1-0.3,0.1-0.7,0-1.1
									C9.3,36.5,9.1,36.4,8.9,36.4z"/>
								<path class="st4" d="M6,34.8c0.4-0.4,1-0.5,1.4-0.5c-0.1,0-0.2-0.1-0.3-0.1c-0.6-0.1-1.3,0-1.9,0.3
									C5.5,34.6,5.8,34.7,6,34.8z"/>
								<path class="st4" d="M8.1,36.4c-0.2,0.4-0.3,0.7-0.4,1c0,0.1-0.1,0.1-0.1,0.2c0,0.1-0.2,0.5-0.2,0.5l-0.1,0.2l-0.4,1
									c0.1,0.1,0.2,0.3,0.4,0.3c0.5-0.5,1.3-1.7,1.4-3.2C8.5,36.4,8.4,36.4,8.1,36.4z"/>
								<path class="st4" d="M5.4,39.2C5.2,39,4.9,39,4.7,38.9c0.1,0.2,0.2,0.4,0.3,0.5c0.2,0.1,0.4,0.2,0.7,0.3
									C5.6,39.7,5.4,39.5,5.4,39.2z"/>
								<path class="st4" d="M4.4,38.7c-0.1-0.1-0.2-0.2-0.4-0.3c0.1,0.2,0.3,0.4,0.5,0.6C4.5,39,4.5,38.9,4.4,38.7z"/>
							</g>
						</g>
						<g>
							<path class="st0" d="M60.4,37.7c0.3,1.8,2,3,3.9,2.7c1.8-0.3,3-2,2.7-3.9c-0.3-1.8-2-3-3.9-2.7
								C61.3,34.1,60.1,35.8,60.4,37.7z"/>
							<g>
								<path class="st4" d="M62.4,36.3c0,0,0.1,0,0.1-0.1c0.3-0.2,0.9-0.5,0.9-0.5c0.1,0,0.1-0.1,0.2-0.1c0.2-0.2,0.4-0.3,0.6-0.4
									c0.1,0,0.1-0.1,0.2-0.1c0.3-0.1,0.6-0.2,1-0.3c0.3,0.2,0.5,0.4,0.7,0.7c-0.9,0.3-1.6,0.7-3.3,1.8
									C62.7,37,62.4,36.4,62.4,36.3z"/>
								<path class="st4" d="M63.2,38.1c0-0.1-0.2-0.4-0.2-0.6c1.7-1.1,2.6-1.5,3.3-1.8c0.1,0.2,0.2,0.4,0.3,0.7
									C66.1,37,64.8,37.7,63.2,38.1z"/>
								<path class="st4" d="M63.3,35.4c-0.6-0.4-1.4-0.3-1.9-0.1c0.2-0.3,0.4-0.5,0.7-0.6c0.5-0.1,1.3-0.1,1.8,0.3
									C63.8,35.1,63.6,35.2,63.3,35.4z"/>
								<path class="st4" d="M65.8,38.4c-0.1,0.1-0.2,0.1-0.2,0.2c-0.2,0.1-0.4,0.2-0.6,0.3c-0.1,0-0.2,0.1-0.3,0.1
									c-0.3,0.1-1.1,0.3-1.1,0.3s-0.3-0.7-0.4-1c1.3-0.3,2.7-0.9,3.3-1.6c0,0.3,0,0.6,0,1C66.4,38,66.2,38.2,65.8,38.4z"/>
								<path class="st4" d="M63.6,39.6l0.2-0.1c0.2-0.1,0.5-0.1,0.7-0.2c-0.1,0.3-0.3,0.5-0.5,0.6c-0.3,0-0.6,0-0.9,0
									C63.4,39.8,63.6,39.6,63.6,39.6z"/>
								<path class="st4" d="M60.9,36.3c0.1-0.2,0.1-0.4,0.2-0.5c0.5-0.2,1.3-0.4,1.9-0.1l-1,0.6c-0.2,0-0.3,0-0.5,0
									c-0.1,0-0.2,0-0.2,0C61.2,36.2,61,36.2,60.9,36.3z"/>
								<path class="st4" d="M61.3,36.4c0,1.5,0.7,2.7,1.4,3.4c-1-0.3-1.7-1.2-1.9-2.2c-0.1-0.3-0.1-0.7,0-1.1
									C61,36.5,61.1,36.4,61.3,36.4z"/>
								<path class="st4" d="M64.2,34.8c-0.4-0.4-1-0.5-1.4-0.5c0.1,0,0.2-0.1,0.3-0.1c0.6-0.1,1.3,0,1.9,0.3
									C64.8,34.6,64.6,34.7,64.2,34.8z"/>
								<path class="st4" d="M62.1,36.4c0.2,0.4,0.3,0.7,0.4,1c0,0.1,0.1,0.1,0.1,0.2c0,0.1,0.2,0.5,0.2,0.5l0.1,0.2l0.4,1
									c-0.1,0.1-0.2,0.3-0.4,0.3c-0.6-0.6-1.4-1.8-1.4-3.4C61.8,36.4,62,36.4,62.1,36.4z"/>
								<path class="st4" d="M65,39.2c0.2-0.1,0.4-0.1,0.6-0.2c-0.1,0.2-0.2,0.4-0.3,0.5c-0.2,0.1-0.4,0.2-0.7,0.3
									C64.7,39.7,64.9,39.5,65,39.2z"/>
								<path class="st4" d="M65.8,38.7c0.1-0.1,0.3-0.2,0.4-0.3c-0.1,0.2-0.3,0.4-0.5,0.6C65.7,39,65.8,38.9,65.8,38.7z"/>
							</g>
						</g>
					</g>
				</g>
			</g>
		</g>
		<g>
			<path class="st0" d="M93.9,66.3v1.8h-3.1v8.5h-1.9v-8.5h-3.1v-1.8H93.9z"/>
			<path class="st0" d="M97,66.3v4.1h4.5v-4.1h1.9v10.3h-1.9v-4.3H97v4.3H95V66.3H97z"/>
			<path class="st0" d="M112.1,66.3v1.7h-5.2v2.4h4.7v1.7h-4.7v2.7h5.2v1.7H105V66.3H112.1z"/>
			<path class="st0" d="M123.2,76.8c-3,0-5.3-2.3-5.3-5.3s2.3-5.3,5.3-5.3s5.3,2.3,5.3,5.3S126.3,76.8,123.2,76.8z M126.6,71.5
				c0-2.2-1.5-3.6-3.3-3.6s-3.3,1.3-3.3,3.6s1.5,3.6,3.3,3.6S126.6,73.7,126.6,71.5z"/>
			<path class="st0" d="M130.2,66.3h7.3v1.7h-5.3v2.7h4.9v1.7h-4.9v4.2h-1.9V66.3z"/>
			<path class="st0" d="M139.2,66.3h7.3v1.7h-5.3v2.7h4.9v1.7h-4.9v4.2h-1.9V66.3z"/>
			<path class="st0" d="M150.5,68V75h1v1.7h-4V75h1V68h-1v-1.7h4V68H150.5z"/>
			<path class="st0" d="M152.7,71.5c0-3.2,2.3-5.3,5.3-5.3c1.8,0,3.3,0.7,4.2,1.9l-1.4,1.5c-0.6-0.9-1.6-1.6-2.9-1.6
				c-1.8,0-3.3,1.4-3.3,3.6c0,2.1,1.5,3.6,3.3,3.6c1.3,0,2.1-0.5,2.9-1.5l1.4,1.4c-1,1.3-2.4,1.9-4.3,1.9
				C154.9,76.8,152.7,74.7,152.7,71.5z"/>
			<path class="st0" d="M166.6,68V75h1v1.7h-4V75h1V68h-1v-1.7h4V68H166.6z"/>
			<path class="st0" d="M172.8,66.3h1.9l4.2,10.3h-2.1l-1-2.7h-4l-1,2.7h-2.1L172.8,66.3z M175.1,72.2l-0.9-2.5c0,0-0.2-0.5-0.4-1.1
				c-0.2,0.6-0.4,1.1-0.4,1.1l-0.9,2.5H175.1z"/>
			<path class="st0" d="M179.9,66.3h1.9v8.5h5.2v1.8h-7.1V66.3z"/>
			<path class="st0" d="M197.9,76.8c-3,0-5.3-2.3-5.3-5.3s2.3-5.3,5.3-5.3s5.3,2.3,5.3,5.3S200.9,76.8,197.9,76.8z M201.2,71.5
				c0-2.2-1.5-3.6-3.3-3.6s-3.3,1.3-3.3,3.6s1.5,3.6,3.3,3.6S201.2,73.7,201.2,71.5z"/>
			<path class="st0" d="M206.6,66.3l4.3,6.5c0,0,0.4,0.6,0.4,0.8v-7.3h1.9v10.3h-2l-4.3-6.6c0,0-0.4-0.6-0.4-0.8v7.4h-1.9V66.3
				H206.6z"/>
			<path class="st0" d="M215.3,66.3h1.9v8.5h5.2v1.8h-7.1V66.3z"/>
			<path class="st0" d="M226.8,68V75h1v1.7h-4V75h1V68h-1v-1.7h4V68H226.8z"/>
			<path class="st0" d="M231.4,66.3l4.3,6.5c0,0,0.4,0.6,0.4,0.8v-7.3h1.9v10.3h-2l-4.3-6.6c0,0-0.4-0.6-0.4-0.8v7.4h-1.9V66.3
				H231.4z"/>
			<path class="st0" d="M247.3,66.3v1.7h-5.2v2.4h4.7v1.7h-4.7v2.7h5.2v1.7h-7.1V66.3H247.3z"/>
			<path class="st0" d="M253.4,74.5l1.3-1.3c0.5,1,1.4,1.9,2.8,1.9c1.2,0,1.9-0.6,1.9-1.4c0-1-0.9-1.4-2.5-1.7
				c-1.9-0.4-3.2-1.3-3.2-3.1c0-1.7,1.5-2.8,3.6-2.8c1.6,0,3,0.6,3.7,1.9l-1.3,1.2c-0.7-1-1.4-1.4-2.5-1.4c-0.9,0-1.7,0.3-1.7,1.1
				c0,0.8,0.8,1.2,2.5,1.6c2.2,0.5,3.4,1.4,3.4,3.2c0,1.7-1.4,3.2-3.8,3.2C255.4,76.8,254,75.8,253.4,74.5z"/>
			<path class="st0" d="M270.3,66.3v1.8h-3.1v8.5h-1.9v-8.5h-3.1v-1.8H270.3z"/>
			<path class="st0" d="M276,76.8c-3,0-5.3-2.3-5.3-5.3s2.3-5.3,5.3-5.3s5.3,2.3,5.3,5.3S279.1,76.8,276,76.8z M279.4,71.5
				c0-2.2-1.5-3.6-3.3-3.6s-3.3,1.3-3.3,3.6s1.5,3.6,3.3,3.6S279.4,73.7,279.4,71.5z"/>
			<path class="st0" d="M284.7,72.5v4.2h-1.9V66.3h4.4c2.3,0,3.7,1.1,3.7,2.9c0,1.6-1,2.5-2.4,3l2.5,4.3h-2.2l-2.4-4.2H284.7z
				 M287.2,70.7c1.2,0,1.7-0.5,1.7-1.4c0-0.8-0.5-1.4-1.7-1.4h-2.5v2.7H287.2z"/>
			<path class="st0" d="M299.7,66.3v1.7h-5.2v2.4h4.7v1.7h-4.7v2.7h5.2v1.7h-7.1V66.3H299.7z"/>
		</g>
	</g>
</g>
<g id="Layer_2">
</g>
</svg>
